<svg width="125" height="29" viewBox="0 0 125 29" fill="none" xmlns="http://www.w3.org/2000/svg">
<path d="M1.368 23V6.2H9.456C11.024 6.2 12.376 6.456 13.512 6.968C14.664 7.48 15.552 8.216 16.176 9.176C16.8 10.12 17.112 11.24 17.112 12.536C17.112 13.832 16.8 14.952 16.176 15.896C15.552 16.84 14.664 17.576 13.512 18.104C12.376 18.616 11.024 18.872 9.456 18.872H4.512L7.032 16.448V23H1.368ZM7.032 17.072L4.512 14.504H9.096C9.88 14.504 10.456 14.328 10.824 13.976C11.208 13.624 11.4 13.144 11.4 12.536C11.4 11.928 11.208 11.448 10.824 11.096C10.456 10.744 9.88 10.568 9.096 10.568H4.512L7.032 8V17.072ZM26.0496 23.24C24.4496 23.24 23.0496 22.944 21.8496 22.352C20.6656 21.76 19.7456 20.952 19.0896 19.928C18.4336 18.888 18.1056 17.72 18.1056 16.424C18.1056 15.096 18.4256 13.92 19.0656 12.896C19.7216 11.872 20.6096 11.072 21.7296 10.496C22.8656 9.92 24.1376 9.632 25.5456 9.632C26.8416 9.632 28.0336 9.888 29.1216 10.4C30.2256 10.912 31.1056 11.672 31.7616 12.68C32.4336 13.688 32.7696 14.936 32.7696 16.424C32.7696 16.616 32.7616 16.832 32.7456 17.072C32.7296 17.296 32.7136 17.504 32.6976 17.696H22.5936V15.08H29.8176L27.7776 15.776C27.7776 15.264 27.6816 14.832 27.4896 14.48C27.3136 14.112 27.0656 13.832 26.7456 13.64C26.4256 13.432 26.0416 13.328 25.5936 13.328C25.1456 13.328 24.7536 13.432 24.4176 13.64C24.0976 13.832 23.8496 14.112 23.6736 14.48C23.4976 14.832 23.4096 15.264 23.4096 15.776V16.592C23.4096 17.152 23.5216 17.632 23.7456 18.032C23.9696 18.432 24.2896 18.736 24.7056 18.944C25.1216 19.136 25.6256 19.232 26.2176 19.232C26.8256 19.232 27.3216 19.152 27.7056 18.992C28.1056 18.832 28.5216 18.592 28.9536 18.272L31.7856 21.128C31.1456 21.816 30.3536 22.344 29.4096 22.712C28.4816 23.064 27.3616 23.24 26.0496 23.24ZM40.8173 23.24C39.0093 23.24 37.6013 22.808 36.5933 21.944C35.5853 21.064 35.0813 19.72 35.0813 17.912V6.92H40.5053V17.864C40.5053 18.264 40.6093 18.576 40.8173 18.8C41.0413 19.024 41.3133 19.136 41.6333 19.136C42.0973 19.136 42.5053 19.016 42.8573 18.776L44.1533 22.544C43.7373 22.784 43.2333 22.96 42.6413 23.072C42.0653 23.184 41.4573 23.24 40.8173 23.24ZM33.2812 14.552V10.592H43.1933V14.552H33.2812ZM51.9523 23.384C50.5443 23.384 49.1843 23.224 47.8723 22.904C46.5603 22.584 45.4803 22.168 44.6323 21.656L46.4563 17.528C47.2563 17.992 48.1443 18.368 49.1203 18.656C50.1123 18.928 51.0723 19.064 52.0003 19.064C52.5443 19.064 52.9683 19.032 53.2723 18.968C53.5923 18.888 53.8243 18.784 53.9683 18.656C54.1123 18.512 54.1843 18.344 54.1843 18.152C54.1843 17.848 54.0163 17.608 53.6803 17.432C53.3443 17.256 52.8963 17.112 52.3363 17C51.7923 16.872 51.1923 16.744 50.5363 16.616C49.8803 16.472 49.2163 16.288 48.5443 16.064C47.8883 15.84 47.2803 15.544 46.7203 15.176C46.1763 14.808 45.7363 14.328 45.4003 13.736C45.0643 13.128 44.8963 12.376 44.8963 11.48C44.8963 10.44 45.1843 9.496 45.7603 8.648C46.3523 7.784 47.2243 7.096 48.3763 6.584C49.5443 6.072 50.9923 5.816 52.7203 5.816C53.8563 5.816 54.9763 5.936 56.0803 6.176C57.1843 6.416 58.1763 6.784 59.0563 7.28L57.3523 11.384C56.5203 10.968 55.7123 10.656 54.9283 10.448C54.1603 10.24 53.4083 10.136 52.6723 10.136C52.1283 10.136 51.6963 10.184 51.3763 10.28C51.0563 10.376 50.8243 10.504 50.6803 10.664C50.5523 10.824 50.4883 11 50.4883 11.192C50.4883 11.48 50.6563 11.712 50.9923 11.888C51.3283 12.048 51.7683 12.184 52.3123 12.296C52.8723 12.408 53.4803 12.528 54.1363 12.656C54.8083 12.784 55.4723 12.96 56.1283 13.184C56.7843 13.408 57.3843 13.704 57.9283 14.072C58.4883 14.44 58.9363 14.92 59.2723 15.512C59.6083 16.104 59.7763 16.84 59.7763 17.72C59.7763 18.744 59.4803 19.688 58.8883 20.552C58.3123 21.4 57.4483 22.088 56.2963 22.616C55.1443 23.128 53.6963 23.384 51.9523 23.384ZM68.3498 23.24C66.8458 23.24 65.5098 22.952 64.3418 22.376C63.1738 21.8 62.2538 21 61.5818 19.976C60.9258 18.936 60.5978 17.752 60.5978 16.424C60.5978 15.096 60.9258 13.92 61.5818 12.896C62.2538 11.872 63.1738 11.072 64.3418 10.496C65.5098 9.92 66.8458 9.632 68.3498 9.632C69.9498 9.632 71.3178 9.976 72.4538 10.664C73.5898 11.352 74.3738 12.304 74.8058 13.52L70.6058 15.584C70.3338 14.976 69.9978 14.536 69.5978 14.264C69.2138 13.992 68.7898 13.856 68.3258 13.856C67.9258 13.856 67.5498 13.952 67.1978 14.144C66.8618 14.336 66.5898 14.624 66.3818 15.008C66.1898 15.376 66.0938 15.848 66.0938 16.424C66.0938 17 66.1898 17.48 66.3818 17.864C66.5898 18.248 66.8618 18.536 67.1978 18.728C67.5498 18.92 67.9258 19.016 68.3258 19.016C68.7898 19.016 69.2138 18.88 69.5978 18.608C69.9978 18.336 70.3338 17.896 70.6058 17.288L74.8058 19.352C74.3738 20.568 73.5898 21.52 72.4538 22.208C71.3178 22.896 69.9498 23.24 68.3498 23.24ZM82.8782 23.24C81.3902 23.24 80.0702 22.952 78.9182 22.376C77.7822 21.784 76.8862 20.976 76.2302 19.952C75.5742 18.928 75.2462 17.752 75.2462 16.424C75.2462 15.096 75.5742 13.92 76.2302 12.896C76.8862 11.872 77.7822 11.072 78.9182 10.496C80.0702 9.92 81.3902 9.632 82.8782 9.632C84.3662 9.632 85.6862 9.92 86.8382 10.496C87.9902 11.072 88.8862 11.872 89.5262 12.896C90.1822 13.92 90.5102 15.096 90.5102 16.424C90.5102 17.752 90.1822 18.928 89.5262 19.952C88.8862 20.976 87.9902 21.784 86.8382 22.376C85.6862 22.952 84.3662 23.24 82.8782 23.24ZM82.8782 19.016C83.2782 19.016 83.6382 18.92 83.9582 18.728C84.2782 18.536 84.5342 18.248 84.7262 17.864C84.9182 17.464 85.0142 16.984 85.0142 16.424C85.0142 15.848 84.9182 15.376 84.7262 15.008C84.5342 14.624 84.2782 14.336 83.9582 14.144C83.6382 13.952 83.2782 13.856 82.8782 13.856C82.4782 13.856 82.1182 13.952 81.7982 14.144C81.4782 14.336 81.2222 14.624 81.0302 15.008C80.8382 15.376 80.7422 15.848 80.7422 16.424C80.7422 16.984 80.8382 17.464 81.0302 17.864C81.2222 18.248 81.4782 18.536 81.7982 18.728C82.1182 18.92 82.4782 19.016 82.8782 19.016ZM99.1438 23.24C97.6558 23.24 96.3358 22.952 95.1838 22.376C94.0478 21.784 93.1518 20.976 92.4958 19.952C91.8398 18.928 91.5118 17.752 91.5118 16.424C91.5118 15.096 91.8398 13.92 92.4958 12.896C93.1518 11.872 94.0478 11.072 95.1838 10.496C96.3358 9.92 97.6558 9.632 99.1438 9.632C100.632 9.632 101.952 9.92 103.104 10.496C104.256 11.072 105.152 11.872 105.792 12.896C106.448 13.92 106.776 15.096 106.776 16.424C106.776 17.752 106.448 18.928 105.792 19.952C105.152 20.976 104.256 21.784 103.104 22.376C101.952 22.952 100.632 23.24 99.1438 23.24ZM99.1438 19.016C99.5438 19.016 99.9038 18.92 100.224 18.728C100.544 18.536 100.8 18.248 100.992 17.864C101.184 17.464 101.28 16.984 101.28 16.424C101.28 15.848 101.184 15.376 100.992 15.008C100.8 14.624 100.544 14.336 100.224 14.144C99.9038 13.952 99.5438 13.856 99.1438 13.856C98.7438 13.856 98.3838 13.952 98.0638 14.144C97.7438 14.336 97.4878 14.624 97.2958 15.008C97.1038 15.376 97.0078 15.848 97.0078 16.424C97.0078 16.984 97.1038 17.464 97.2958 17.864C97.4878 18.248 97.7438 18.536 98.0638 18.728C98.3838 18.92 98.7438 19.016 99.1438 19.016ZM117.233 23.24C116.033 23.24 115.065 23 114.329 22.52C113.593 22.04 113.057 21.296 112.721 20.288C112.401 19.28 112.241 17.992 112.241 16.424C112.241 14.872 112.417 13.6 112.769 12.608C113.121 11.6 113.665 10.856 114.401 10.376C115.153 9.88 116.097 9.632 117.233 9.632C118.385 9.632 119.441 9.904 120.401 10.448C121.361 10.992 122.129 11.776 122.705 12.8C123.281 13.808 123.569 15.016 123.569 16.424C123.569 17.832 123.281 19.048 122.705 20.072C122.129 21.08 121.361 21.864 120.401 22.424C119.441 22.968 118.385 23.24 117.233 23.24ZM108.473 23V5.192H113.897V11.624L113.657 16.424L113.633 21.224V23H108.473ZM115.937 19.016C116.337 19.016 116.697 18.92 117.017 18.728C117.337 18.536 117.593 18.248 117.785 17.864C117.977 17.464 118.073 16.984 118.073 16.424C118.073 15.848 117.977 15.376 117.785 15.008C117.593 14.624 117.337 14.336 117.017 14.144C116.697 13.952 116.337 13.856 115.937 13.856C115.537 13.856 115.177 13.952 114.857 14.144C114.537 14.336 114.281 14.624 114.089 15.008C113.897 15.376 113.801 15.848 113.801 16.424C113.801 16.984 113.897 17.464 114.089 17.864C114.281 18.248 114.537 18.536 114.857 18.728C115.177 18.92 115.537 19.016 115.937 19.016Z" fill="white"/>
</svg>
